<svg xmlns="http://www.w3.org/2000/svg" width="9" height="14" fill="none"><path fill="#F6F6F6" stroke="#F6F6F6" stroke-width=".025" d="M5.098 2.947v6.446a.9.9 0 0 1-.259.644.85.85 0 0 1-.636.266.85.85 0 0 1-.637-.266.9.9 0 0 1-.258-.644V2.944h-.753v6.45q0 .695.492 1.178.49.484 1.173.484.682 0 1.156-.491.475-.492.475-1.172V2.962q0-1.23-.846-2.09-.844-.86-2.073-.86T.858.872L.848.864l.01.008q-.845.86-.845 2.09v6.79q0 1.762 1.22 2.999 1.222 1.237 2.978 1.237t2.968-1.237 1.215-2.999V2.944H7.64v6.808q-.01 1.446-1.006 2.464a3.26 3.26 0 0 1-2.42 1.019q-1.442 0-2.448-1.019T.765 9.752m4.333-6.805-3.705-1.54.01.01-.01-.01m3.705 1.54A2.14 2.14 0 0 0 4.471 1.4m.627 1.547L4.471 1.4M.765 9.752h.013-.013Zm0 0v-6.79q0-.912.628-1.554m0 0A2.07 2.07 0 0 1 2.932.765m-1.539.643L2.932.765M4.47 1.4Q3.849.765 2.931.765m1.54.635L2.931.765m4.697 2.18v-.013h.013z"/></svg>