<svg xmlns="http://www.w3.org/2000/svg" width="195.34" height="45.86" data-name="Layer 1"><path fill="#58595b" d="M195.34 36.17c0 5.35-3.97 9.69-8.87 9.69H8.87c-4.9 0-8.87-4.34-8.87-9.69V9.69C0 4.34 3.97 0 8.87 0h177.61c4.9 0 8.87 4.34 8.87 9.69v26.48Z"/><path fill="#f6921e" d="M22.97 34.91v-18c0-.24.11-.44.33-.59s.49-.22.81-.22.58.08.79.23.31.35.31.6v1.16q.51-.9 1.5-1.53c.66-.42 1.42-.62 2.29-.62 1.42 0 2.62.53 3.61 1.58s1.49 2.32 1.49 3.79v2.85c0 1.42-.5 2.67-1.5 3.77q-1.5 1.65-3.48 1.65c-.83 0-1.59-.21-2.28-.64-.69-.42-1.19-.95-1.51-1.57v7.54c0 .2-.12.4-.35.57-.24.18-.51.27-.84.27s-.59-.08-.82-.25-.34-.36-.34-.59Zm2.35-10.02c0 .46.33 1 .98 1.63q.975.93 2.22.93c1.245 0 1.6-.34 2.25-1.01.65-.68.98-1.44.98-2.29v-2.83c0-.83-.33-1.58-.98-2.25s-1.42-1-2.31-1q-1.245 0-2.19.9c-.63.6-.95 1.38-.95 2.35v3.58ZM37.99 12.06c-.29-.27-.44-.58-.44-.94s.14-.66.43-.92q.42-.39 1.05-.39c.63 0 .74.13 1.02.39s.42.57.42.92-.14.67-.42.94-.62.41-1.02.41-.74-.14-1.03-.41Zm-.13 16.45v-11.6c0-.24.11-.44.34-.59s.5-.22.82-.22c.34 0 .62.07.85.22s.34.35.34.59v11.6c0 .2-.12.4-.35.57-.24.18-.51.27-.84.27s-.59-.08-.82-.25-.34-.36-.34-.59"/><path fill="#fff" d="M51.22 25.35V10.34q0-.255.21-.42c.14-.11.3-.17.47-.17.19 0 .35.06.5.17q.21.165.21.42v5.81h3.77c.15 0 .28.06.38.18s.16.27.16.43c0 .15-.06.28-.17.41-.11.12-.24.18-.37.18h-3.77v7.99c0 .99.22 1.69.65 2.1s1.19.62 2.27.62h.71c.19 0 .34.06.47.18.12.12.18.27.18.46q0 .255-.18.45c-.12.13-.28.2-.47.2h-.71c-2.87 0-4.3-1.33-4.3-4ZM59.46 24.35v-3.33c0-1.38.51-2.56 1.53-3.55s2.25-1.48 3.68-1.48 2.59.48 3.6 1.45 1.52 2.17 1.52 3.61c0 .5-.06.91-.18 1.22s-.32.53-.58.66q-.39.195-.72.24c-.22.03-.52.04-.92.04h-6.55v1.17c0 1.17.42 2.12 1.27 2.82.85.71 1.94 1.06 3.28 1.06.68 0 1.25-.09 1.72-.28s.83-.37 1.07-.56.43-.28.57-.28c.17 0 .31.07.44.22s.19.3.19.45c0 .35-.39.73-1.17 1.12s-1.74.59-2.89.59c-1.74 0-3.15-.48-4.25-1.43s-1.64-2.2-1.64-3.75Zm1.39-2.29h6.03c.64 0 1.07-.07 1.27-.2.21-.13.31-.4.31-.81 0-.99-.36-1.87-1.08-2.65s-1.62-1.17-2.72-1.17-1.96.36-2.7 1.09c-.75.73-1.12 1.59-1.12 2.6v1.15ZM73.19 24.35v-3.19c0-1.53.45-2.77 1.35-3.73s2.22-1.44 3.98-1.44c1.08 0 1.98.19 2.72.57s1.1.76 1.1 1.13c0 .17-.07.32-.2.46q-.195.21-.45.21c-.09 0-.26-.09-.5-.27s-.58-.36-1.03-.54c-.45-.19-.99-.28-1.61-.28-1.26 0-2.24.35-2.93 1.03-.69.69-1.03 1.64-1.03 2.85v3.19c0 1.23.34 2.18 1.02 2.86q1.02 1.02 2.97 1.02c.66 0 1.23-.09 1.7-.28s.83-.37 1.08-.56c.24-.19.42-.28.54-.28.17 0 .32.07.44.21s.18.29.18.46c0 .39-.38.78-1.15 1.16q-1.14.57-2.85.57c-1.74 0-3.06-.48-3.96-1.43-.91-.95-1.36-2.2-1.36-3.75ZM86.11 28.74V8.53c0-.17.07-.31.2-.42s.29-.17.48-.17c.21 0 .38.06.51.17s.2.25.2.42v9.59c.32-.6.81-1.1 1.46-1.51s1.42-.61 2.31-.61c1.38 0 2.57.5 3.57 1.51s1.5 2.21 1.5 3.61v7.63c0 .41-.24.61-.71.61s-.68-.2-.68-.61v-7.63c0-.99-.38-1.87-1.13-2.65-.76-.78-1.64-1.17-2.66-1.17q-1.44 0-2.55 1.05c-.74.7-1.1 1.63-1.1 2.78v7.63q0 .225-.21.42c-.14.13-.31.2-.5.2s-.35-.06-.48-.18a.58.58 0 0 1-.2-.43ZM100.86 28.74V16.72c0-.37.23-.56.68-.56q.285 0 .48.15c.13.1.2.24.2.41v1.4c.32-.6.81-1.1 1.47-1.51s1.43-.61 2.32-.61c1.38 0 2.57.5 3.57 1.51s1.5 2.21 1.5 3.61v7.63c0 .41-.24.61-.71.61s-.68-.2-.68-.61v-7.63c0-.99-.38-1.87-1.13-2.65-.76-.78-1.64-1.17-2.66-1.17q-1.44 0-2.55 1.05c-.74.7-1.1 1.63-1.1 2.78v7.63q0 .225-.21.42c-.14.13-.31.2-.5.2s-.35-.06-.48-.18a.58.58 0 0 1-.2-.43ZM115.21 10.96c0-.26.1-.49.31-.68.21-.2.46-.29.76-.29.28 0 .53.1.74.29.21.2.31.42.31.68 0 .28-.1.52-.31.73s-.45.31-.74.31c-.3 0-.56-.1-.76-.31a.98.98 0 0 1-.31-.73m.4 17.78V16.72c0-.37.23-.56.68-.56s.71.19.71.56v12.02q0 .225-.21.42c-.14.13-.31.2-.5.2s-.35-.06-.48-.18a.58.58 0 0 1-.2-.43ZM121.16 24.35v-3.24c0-1.42.5-2.62 1.5-3.62q1.5-1.5 3.6-1.5c.87 0 1.63.21 2.29.61.66.41 1.16.91 1.5 1.51v-1.4c0-.17.07-.3.2-.41q.195-.15.48-.15c.45 0 .68.19.68.56V35.3c0 .17-.07.31-.2.43q-.195.18-.48.18c-.285 0-.35-.07-.5-.2q-.21-.195-.21-.42v-7.91c-.32.6-.84 1.1-1.54 1.51-.71.41-1.47.61-2.28.61-1.34 0-2.52-.52-3.52-1.57-1.01-1.04-1.51-2.25-1.51-3.61Zm1.39 0c0 1.01.38 1.91 1.13 2.7s1.63 1.19 2.63 1.19 1.82-.35 2.58-1.06c.75-.71 1.13-1.33 1.13-1.87v-4.19c0-1.16-.37-2.08-1.1-2.78q-1.11-1.05-2.58-1.05c-1.47 0-1.91.39-2.66 1.17s-1.13 1.67-1.13 2.65zM135.94 24.4v-7.66c0-.15.07-.28.21-.41a.75.75 0 0 1 .5-.18c.17 0 .33.06.47.18s.21.26.21.41v7.66c0 1.01.37 1.9 1.12 2.67s1.64 1.16 2.68 1.16 1.93-.39 2.68-1.16 1.12-1.66 1.12-2.67v-7.69q0-.225.21-.39c.14-.11.31-.17.5-.17s.35.06.48.17.2.24.2.39v7.69c0 1.38-.51 2.58-1.53 3.59-1.02 1.02-2.24 1.52-3.65 1.52s-2.63-.51-3.65-1.54c-1.02-1.02-1.53-2.22-1.53-3.58ZM150.32 24.35v-3.33c0-1.38.51-2.56 1.53-3.55s2.25-1.48 3.68-1.48 2.59.48 3.6 1.45 1.52 2.17 1.52 3.61c0 .5-.06.91-.18 1.22s-.32.53-.58.66q-.39.195-.72.24c-.22.03-.52.04-.92.04h-6.55v1.17c0 1.17.42 2.12 1.27 2.82.85.71 1.94 1.06 3.28 1.06.68 0 1.25-.09 1.72-.28s.83-.37 1.07-.56.43-.28.57-.28c.17 0 .31.07.44.22s.19.3.19.45c0 .35-.39.73-1.17 1.12s-1.74.59-2.89.59c-1.74 0-3.15-.48-4.25-1.43s-1.64-2.2-1.64-3.75Zm1.39-2.29h6.03c.64 0 1.07-.07 1.27-.2.21-.13.31-.4.31-.81 0-.99-.36-1.87-1.08-2.65s-1.62-1.17-2.72-1.17-1.96.36-2.7 1.09c-.75.73-1.12 1.59-1.12 2.6v1.15ZM163.68 27.62c0-.15.05-.29.16-.43.1-.14.22-.21.35-.21.11-.02.26.05.45.2l.65.45q.345.225 1.05.45c.47.15 1 .22 1.59.22 1.06 0 1.84-.2 2.35-.6s.76-.92.76-1.55q0-1.125-.72-1.77c-.48-.43-1.06-.75-1.75-.95s-1.38-.41-2.08-.62-1.3-.57-1.78-1.07q-.72-.75-.72-2.04c0-.97.36-1.83 1.09-2.57s1.8-1.12 3.21-1.12c.89 0 1.71.14 2.48.41.76.27 1.15.55 1.15.85 0 .15-.07.31-.2.48s-.27.25-.42.25c-.02 0-.35-.13-.99-.38s-1.3-.38-1.98-.38q-1.53 0-2.28.75t-.75 1.68c0 .93.24 1.13.72 1.48s1.07.63 1.76.84q1.035.315 2.1.63c.7.21 1.29.6 1.78 1.17q.72.855.72 2.28c0 1.08-.39 1.93-1.16 2.54s-1.86.92-3.26.92c-1.21 0-2.22-.21-3.04-.63s-1.23-.84-1.23-1.27Z"/></svg>