<svg xmlns="http://www.w3.org/2000/svg" width="114" height="100" fill="none"><path fill="#F7941E" stroke="#1F1F1F" d="M26.837 29.058v-.85l-.743.413-13.146 7.304h-.002c-1.104.603-2.111.756-3.046.522-.918-.23-1.682-.85-2.28-1.946l-.005-.009-6.49-11.36c-.6-1.098-.756-2.134-.52-3.13.233-.976.857-1.762 1.945-2.355l.009-.005.008-.005L31.345.5h6.68c1.196 0 2.087.345 2.731.99.645.644.99 1.535.99 2.73v.65c0 4.038 1.52 7.571 4.53 10.581s6.543 4.53 10.58 4.53c4.038 0 7.572-1.52 10.581-4.53 3.01-3.01 4.53-6.543 4.53-10.58v-.65c0-1.196.345-2.087.99-2.731C73.6.845 74.49.5 75.687.5h6.681l28.778 17.137.008.005.008.005c1.089.593 1.713 1.38 1.945 2.355.237.996.08 2.032-.518 3.131l-.003.004-6.488 11.355h-.001l-.004.009c-.598 1.096-1.362 1.716-2.28 1.946-.935.233-1.942.08-3.047-.521l-.001-.001-13.146-7.304-.743-.412v67.245c0 1.176-.386 2.128-1.152 2.894S84.005 99.5 82.83 99.5H30.882c-1.175 0-2.127-.386-2.893-1.152s-1.152-1.718-1.152-2.894zm-15.52 3.685 19.065-10.47v73.682H83.33V22.274l19.065 10.47.428.235.245-.423 6.494-11.201.247-.428-.424-.253-27.76-16.558-.118-.07h-5.995v.5c0 5.284-1.791 9.758-5.378 13.45-3.583 3.688-7.998 5.53-13.278 5.53s-9.694-1.842-13.277-5.53C39.992 14.304 38.2 9.83 38.2 4.546v-.5h-5.994l-.119.07-27.76 16.558-.424.253.248.428 6.494 11.201.245.423z"/></svg>