<svg xmlns="http://www.w3.org/2000/svg" width="124" height="100" fill="none"><path fill="#F7941E" stroke="#1F1F1F" d="m58.116 98.62-.008-.004q-7.186-4.152-14.94-6.151-7.748-1.997-16.049-1.997-4.468 0-8.779.56a42.7 42.7 0 0 0-8.497 2.003l-.007.003c-2.165.787-4.155.497-6.029-.884C1.931 90.768 1 88.911 1 86.532V30.124c0-1.59.445-2.991 1.332-4.223.894-1.242 2.027-2.102 3.407-2.594l.01-.004.01-.004a54.5 54.5 0 0 1 10.44-3.062 59 59 0 0 1 10.92-1.021q9.267 0 17.9 2.983a92.3 92.3 0 0 1 16.459 7.578v67.175l.77-.492q7.853-5.026 16.725-7.224 8.895-2.204 17.864-2.204 5.047 0 8.891.472 3.838.469 8.405 1.728h.001c1.233.337 2.406.37 3.507.08a2.26 2.26 0 0 0 1.435-1.085c.311-.539.443-1.224.443-2.012V23.397q.097.026.186.061.297.119.545.365l.05.05.061.034a4.6 4.6 0 0 1 1.935 2.004c.437.875.66 1.854.66 2.946v57.358c0 2.362-.994 4.188-3.023 5.524-2.035 1.34-4.284 1.668-6.791.969a43 43 0 0 0-8.087-1.76 70 70 0 0 0-8.218-.48 68.5 68.5 0 0 0-16.52 1.996 58.4 58.4 0 0 0-15.262 6.152l-.007.005q-.724.436-1.607.656a7.3 7.3 0 0 1-1.78.223 8.3 8.3 0 0 1-1.868-.225 5.8 5.8 0 0 1-1.677-.654Zm-.826-4.209.752.436v-63.11l-.25-.144q-7.177-4.147-14.837-6.541a52.8 52.8 0 0 0-15.836-2.4q-5.906 0-10.8 1.041-4.86 1.036-8.55 2.479c-.905.339-1.68.824-2.315 1.46-.677.677-1.017 1.519-1.017 2.492v56.408c0 .788.132 1.473.443 2.012.32.556.808.921 1.435 1.086 1.117.294 2.303.2 3.54-.25q3.276-1.091 7.436-1.72 4.151-.628 9.828-.628 9.287 0 17.293 2.278c5.364 1.525 9.652 3.228 12.878 5.101Zm21.313-18.396-.002.002c-.367.32-.726.494-1.08.555-.354.06-.74.014-1.168-.166-.423-.178-.712-.422-.9-.718-.19-.299-.3-.69-.3-1.198V29.332c0-.234.06-.51.198-.833.142-.33.295-.561.449-.715l26.619-26.62c.371-.37.729-.566 1.072-.635.338-.068.711-.02 1.133.18.428.202.724.465.917.78s.303.715.303 1.224v47.851c0 .36-.068.65-.185.886a2.6 2.6 0 0 1-.452.653z"/></svg>