<svg xmlns="http://www.w3.org/2000/svg" width="109" height="100" fill="none"><path fill="#F7941E" stroke="#1F1F1F" stroke-width="1.5" d="m34.882 52.206.217-.444-.321-.374a7.6 7.6 0 0 1-1.08-1.65L12.98 6.832a3.54 3.54 0 0 0-3.185-2H.75V.75h9.045a7.61 7.61 0 0 1 6.853 4.305l20.718 42.904c.59 1.223 1.828 2 3.185 2h37.207c1.257 0 2.42-.668 3.054-1.754L103.79 8.863l3.518 2.06-22.98 39.345a7.61 7.61 0 0 1-6.57 3.774H40.55q-.694 0-1.361-.122l-.558-.102-.25.51-5.631 11.505c-1.151 2.352.557 5.1 3.176 5.1H96.72v4.084H35.927c-5.631 0-9.316-5.914-6.835-10.982zM47.177 90.32c0 4.933-3.993 8.93-8.916 8.93-4.924 0-8.917-3.997-8.917-8.93 0-4.934 3.993-8.931 8.917-8.931s8.916 3.997 8.916 8.93Zm-8.916 4.847a4.844 4.844 0 0 0 4.84-4.847 4.844 4.844 0 0 0-4.84-4.848 4.844 4.844 0 0 0-4.842 4.848 4.844 4.844 0 0 0 4.842 4.847Zm58.055-4.847c0 4.933-3.993 8.93-8.917 8.93s-8.916-3.997-8.916-8.93c0-4.934 3.993-8.931 8.916-8.931 4.924 0 8.917 3.997 8.917 8.93Zm-8.917 4.847a4.844 4.844 0 0 0 4.842-4.847 4.844 4.844 0 0 0-4.842-4.848 4.844 4.844 0 0 0-4.84 4.848 4.844 4.844 0 0 0 4.84 4.847Z"/></svg>